<?xml version="1.0" encoding="UTF-8"?>
<svg id="Layer_2" data-name="Layer 2" xmlns="http://www.w3.org/2000/svg" viewBox="0 0 900.61 1231.93">
  <defs>
    <style>
      .cls-1 {
        fill: #fff;
      }
    </style>
  </defs>
  <g id="Layer_1-2" data-name="Layer 1">
    <g>
      <path class="cls-1" d="M833.09,479.47c29.03-67.32,16.38-110.25-2.71-179.56-33.93-123.21-17.19-77.63-47.93-177.8-45.91-149.6-279.67-162.67-268.02,3.64,4.45,63.54,5.35,35.99,6.65,91.61.86,36.73-6.7,161.33-65.29,175.86-56.39,13.99-71.47-38.2-71.96-65.96-1.94-108.64,71.3-163.76,12.81-267.37C324.74-67.48,60.29,7.81,125.13,290.66c13.86,60.47-15.67,74.94-38.48,100.44-10.46,9.78-18.06,22.04-22.33,35.41-3.58,11.17-4.83,23.11-3.51,35.02.17,1.56.81,10.1,5.04,20.74,0,.04.03.08.05.1.42,1.11,116.38,240.39,116.38,240.39,15.93,36.7,57.43,48.53,81.14,46.51,4.56,14.41,13.43,31.99,30.61,48.5,31.37,30.15,79.66,46.38,144,48.51-104.76,29.05-141.67,45.55-148.9,69.9-3.1,10.44-.55,21.17,6.98,29.44,20.06,22.03,71.14,25.88,182.91,29.41,21.85.69,47.68,1.51,69.7,2.89-16.81,6.18-40.03,13.97-72.09,23.66-51.62,15.62-88.02,27.85-111.28,37.41-20.14,8.27-47.73,19.6-44.71,44.45,3.37,27.8,32.92,29.36,91.78,32.45,26.52,1.39,78.3,4.12,97.97,11.59-5.93,6.56-20.49,19.29-55.58,39.46-11.54,6.63-15.52,21.36-8.89,32.9,4.46,7.76,12.57,12.1,20.92,12.1,4.07,0,8.2-1.04,11.98-3.21,47.8-27.47,90.87-57.78,82.38-93.3-9.18-38.44-69.48-43.52-135.7-47.1,16.82-5.65,38.11-12.45,65.09-20.61,110.97-33.58,149.63-51.07,145.5-82.37-4.44-33.71-48.68-35.11-155.55-38.49-34.33-1.08-84.43-2.67-117.63-6.84,43.27-16.11,119.89-36.11,162.41-47.21,28.7-7.49,55.8-14.57,75.18-20.34,26.36-7.85,51.26-15.27,47-39.95-4.14-24.01-30.4-23.32-53.56-22.72-21.06.55-53.01,2.69-97.67,6.55-100.58,8.69-146.84-12.83-167.91-32.41-12.72-11.83-17.93-24.42-20.05-32.95,12.45-10.2,21.41-23.69,26.25-38.57,1.76-4.14,3.16-8.8,4.15-14,1.7-8.91.96-18.54-1.87-29.69-1.04-4.83-2.51-9.62-4.44-14.33-10.51-29.42-31.82-68.99-59.34-129.04-44.42-96.91-65.87-229.59-58.95-289.76,8.76-76.24,81.08-120.38,110.13-61.94,48.02,96.6-35.46,232.39,0,343.12,43.8,136.78,214.48,119.07,258.35,0,48.11-130.59-24.77-299.67,14.1-344.6,21.85-25.26,81.1-22.24,103.79,39.61,13.14,35.83,34.13,73.25-35.11,236.53l-97.71,201.2c-20.09,41.39-3.27,91.34,37.59,111.56,8.78,4.34,17.91,7.74,27.16,7.99,45.91,1.25,59.8-2.92,83.23-46.31l117.44-243.29Z"/>
      <path class="cls-1" d="M159.29,727.1l-116.22-232.41c-4.55-8.12-8.9-22.66-8.87-26.04v-.08c-32.39,23.53-43.89,68.04-25.29,105.26l67.03,133.99c16.14,32.31,50.21,49.49,83.76,45.36,5.08-.63,10.15-1.76,15.13-3.36-.12-.13-11.25-13.66-15.54-22.72Z"/>
      <path class="cls-1" d="M741.32,727.1l116.22-232.41c4.55-8.12,8.9-22.66,8.87-26.04v-.08c32.39,23.53,43.89,68.04,25.29,105.26l-67.03,133.99c-16.14,32.31-50.21,49.49-83.76,45.36-5.08-.63-10.15-1.76-15.13-3.36.12-.13,11.25-13.66,15.54-22.72Z"/>
    </g>
  </g>
</svg>